<?xml version="1.0" standalone="no"?>
<!DOCTYPE svg PUBLIC "-//W3C//DTD SVG 20010904//EN"
 "http://www.w3.org/TR/2001/REC-SVG-20010904/DTD/svg10.dtd">
<svg version="1.0" xmlns="http://www.w3.org/2000/svg"
 width="300.000000pt" height="198.000000pt" viewBox="0 0 300.000000 198.000000"
 preserveAspectRatio="xMidYMid meet">
<metadata>
Created by potrace 1.10, written by Peter Selinger 2001-2011
</metadata>
<g transform="translate(0.000000,198.000000) scale(0.100000,-0.100000)"
fill="#000000" stroke="none">
<path d="M1426 1674 c-3 -9 -13 -13 -23 -10 -13 3 -28 -8 -51 -40 -18 -24 -38
-44 -46 -44 -7 0 -23 -12 -37 -26 l-24 -25 50 3 c43 3 50 6 53 26 2 14 10 22
23 22 10 0 19 5 19 12 0 19 44 78 58 78 18 0 92 -39 92 -48 0 -5 -15 -28 -32
-52 -26 -35 -29 -42 -13 -36 11 5 27 10 37 13 9 3 18 13 21 24 3 10 12 19 21
19 9 0 16 8 16 18 0 9 4 23 9 31 7 12 24 2 79 -47 38 -34 72 -62 75 -62 4 0
-10 22 -31 49 -27 38 -39 47 -49 39 -7 -6 -13 -7 -13 -2 -1 5 -11 22 -24 38
l-24 28 -31 -23 -31 -23 -24 23 c-30 28 -91 38 -100 15z"/>
<path d="M1439 1262 l-97 -3 -21 -92 c-12 -51 -21 -100 -21 -109 0 -33 -17
-18 -29 25 -7 23 -22 72 -33 110 l-20 67 -119 0 c-65 0 -119 -2 -119 -5 0 -7
-68 -301 -76 -334 -6 -20 -4 -22 15 -16 11 3 21 4 21 1 0 -2 -13 -63 -30 -134
-16 -72 -30 -135 -30 -141 0 -8 30 -11 97 -9 l98 3 31 140 c17 77 35 139 39
138 5 -1 27 -64 50 -140 l42 -138 99 -3 99 -3 27 124 c15 68 30 131 34 140 4
13 1 17 -15 17 -12 0 -21 2 -21 5 0 2 18 82 40 177 22 95 39 175 38 178 -2 3
-46 4 -99 2z m-254 -53 c7 -8 22 -43 34 -79 48 -146 93 -146 131 0 10 40 24
78 30 84 12 12 88 13 100 0 5 -5 2 -38 -6 -74 -45 -202 -47 -213 -36 -244 9
-25 7 -50 -8 -120 -11 -49 -25 -95 -31 -102 -7 -8 -31 -14 -60 -14 -63 0 -78
17 -113 129 -57 188 -106 188 -152 1 -14 -57 -31 -109 -39 -116 -20 -20 -91
-18 -99 3 -4 9 3 56 15 106 18 71 20 98 12 132 -8 34 -5 63 14 146 31 142 36
153 64 159 41 11 130 4 144 -11z"/>
<path d="M1795 1261 c-83 -22 -162 -87 -191 -157 -19 -45 -18 -134 2 -162 8
-12 25 -22 38 -22 12 0 27 -5 33 -11 7 -7 54 -26 105 -43 74 -25 94 -35 96
-52 5 -35 -33 -59 -92 -58 -62 1 -112 25 -134 65 -14 24 -23 29 -46 27 -29 -3
-31 -6 -48 -83 -9 -44 -18 -85 -18 -91 0 -6 33 -22 73 -35 99 -33 227 -32 311
1 104 40 185 144 186 237 0 36 -2 41 -20 36 -14 -4 -22 1 -29 20 -15 38 -56
64 -146 92 -93 28 -112 43 -96 74 28 51 188 27 206 -30 4 -11 16 -16 37 -15
31 2 32 3 50 81 9 44 18 83 18 86 0 4 -19 15 -42 24 -47 20 -240 30 -293 16z
m248 -42 c33 -9 37 -13 37 -42 0 -18 -6 -41 -13 -51 -12 -16 -16 -16 -65 10
-72 37 -153 36 -194 -3 -58 -56 -29 -101 92 -144 64 -22 95 -39 127 -71 48
-47 51 -63 24 -116 -26 -51 -76 -97 -136 -124 -41 -19 -66 -23 -145 -22 -156
0 -201 29 -170 108 10 27 11 28 33 12 98 -73 223 -74 269 -4 17 26 16 52 -4
75 -14 18 -105 63 -126 63 -19 0 -126 51 -134 64 -12 18 -9 84 6 119 29 68 97
118 187 137 49 10 153 5 212 -11z"/>
<path d="M1000 327 c0 -20 5 -37 11 -37 6 0 8 9 3 23 -6 21 -6 21 13 5 27 -25
33 -23 33 13 0 17 -4 28 -10 24 -5 -3 -6 -13 -3 -23 5 -12 -1 -11 -20 7 l-27
24 0 -36z"/>
<path d="M1121 330 c1 -19 3 -29 6 -22 4 10 9 9 24 -4 12 -10 19 -13 19 -5 0
6 -7 14 -16 18 -9 3 -20 15 -24 27 -7 17 -9 15 -9 -14z"/>
<path d="M1267 353 c-11 -10 -8 -53 3 -53 6 0 10 14 10 30 0 31 -2 35 -13 23z"/>
<path d="M1300 331 c0 -20 6 -30 20 -34 11 -3 23 -1 26 4 3 5 -2 9 -10 9 -10
0 -16 9 -16 25 0 14 -4 25 -10 25 -5 0 -10 -13 -10 -29z"/>
<path d="M1385 350 c-4 -6 -2 -17 5 -24 8 -11 8 -15 -2 -18 -7 -3 -8 -7 -2
-11 5 -3 16 -2 24 3 11 7 12 12 3 21 -6 6 -9 18 -6 25 6 16 -13 19 -22 4z"/>
<path d="M1441 328 c2 -30 2 -31 6 -5 2 15 8 25 13 22 5 -3 7 -12 4 -19 -3 -7
2 -19 11 -26 15 -12 22 0 8 14 -4 4 -8 15 -8 24 0 9 -8 18 -17 20 -15 3 -18
-3 -17 -30z"/>
<path d="M1540 355 c0 -11 24 -55 30 -55 9 0 32 51 26 58 -3 3 -10 -6 -15 -19
l-10 -24 -7 23 c-5 18 -24 32 -24 17z"/>
<path d="M1627 331 c-8 -17 -12 -33 -7 -36 5 -3 10 1 13 7 3 10 8 10 22 -2 17
-14 17 -13 10 10 -15 51 -21 54 -38 21z"/>
<path d="M1695 350 c-4 -6 -2 -17 5 -24 8 -11 8 -15 -2 -19 -7 -2 -10 -8 -6
-12 4 -4 15 -2 23 5 10 8 12 17 6 23 -5 5 -7 16 -4 23 6 16 -13 19 -22 4z"/>
<path d="M1740 350 c0 -5 5 -10 11 -10 6 0 9 -9 6 -20 -3 -11 -1 -23 4 -26 5
-3 9 6 9 20 0 14 5 26 10 26 6 0 10 5 10 10 0 6 -11 10 -25 10 -14 0 -25 -4
-25 -10z"/>
<path d="M1821 337 c-14 -35 -14 -58 -2 -38 8 13 12 13 27 0 15 -13 16 -12 9
11 -16 51 -23 57 -34 27z"/>
<path d="M1880 347 c0 -7 6 -22 14 -32 13 -18 14 -17 30 13 9 18 12 32 7 32
-5 0 -12 -10 -15 -22 l-7 -23 -9 23 c-10 24 -20 29 -20 9z"/>
<path d="M1973 340 c3 -11 2 -18 -3 -15 -4 3 -11 -2 -14 -11 -9 -25 -7 -27 11
-13 13 11 17 11 20 1 3 -6 9 -10 14 -6 5 3 2 18 -6 35 -18 33 -30 39 -22 9z"/>
</g>
</svg>
